<svg xmlns="http://www.w3.org/2000/svg" width="27.997" height="27.997" viewBox="0 0 43 43">
  <metadata><?xpacket begin="﻿" id="W5M0MpCehiHzreSzNTczkc9d"?>
<x:xmpmeta xmlns:x="adobe:ns:meta/" x:xmptk="Adobe XMP Core 5.6-c138 79.159824, 2016/09/14-01:09:01        ">
   <rdf:RDF xmlns:rdf="http://www.w3.org/1999/02/22-rdf-syntax-ns#">
      <rdf:Description rdf:about=""/>
   </rdf:RDF>
</x:xmpmeta>
                                                                                                    
                                                                                                    
                                                                                                    
                                                                                                    
                                                                                                    
                                                                                                    
                                                                                                    
                                                                                                    
                                                                                                    
                                                                                                    
                                                                                                    
                                                                                                    
                                                                                                    
                                                                                                    
                                                                                                    
                                                                                                    
                                                                                                    
                                                                                                    
                                                                                                    
                                                                                                    
                           
<?xpacket end="w"?></metadata>
<defs>
    <style>
      .cls-1 {
        fill: #f3eebd;
        fill-rule: evenodd;
      }
    </style>
  </defs>
  <path id="Forma_1" data-name="Forma 1" class="cls-1" d="M21.5,18.633a5.017,5.017,0,1,0-5.017-5.017A5.023,5.023,0,0,0,21.5,18.633Zm0-8.6a3.583,3.583,0,1,1-3.583,3.583A3.587,3.587,0,0,1,21.5,10.033ZM21.373,39.243L32.368,23.363c4.124-5.5,3.528-14.534-1.276-19.337a13.742,13.742,0,0,0-19.436,0c-4.8,4.8-5.4,13.84-1.293,19.316Zm-8.7-34.2a12.31,12.31,0,0,1,17.409,0c4.336,4.335,4.87,12.5,1.127,17.486l-9.832,14.2L11.525,22.5C7.8,17.535,8.333,9.374,12.669,5.039ZM30.184,30.822a0.717,0.717,0,1,0-.168,1.423c7.536,0.887,11.551,3.278,11.551,4.663,0,1.945-7.634,4.658-20.067,4.658S1.433,38.853,1.433,36.908c0-1.385,4.014-3.776,11.55-4.663a0.717,0.717,0,0,0-.168-1.423C5.27,31.71,0,34.213,0,36.908,0,39.936,7.385,43,21.5,43S43,39.936,43,36.908C43,34.213,37.73,31.71,30.184,30.822Z"/>
</svg>
