<svg xmlns="http://www.w3.org/2000/svg" width="412" height="329" viewBox="0 0 412 329">
  <metadata><?xpacket begin="﻿" id="W5M0MpCehiHzreSzNTczkc9d"?>
<x:xmpmeta xmlns:x="adobe:ns:meta/" x:xmptk="Adobe XMP Core 5.6-c138 79.159824, 2016/09/14-01:09:01        ">
   <rdf:RDF xmlns:rdf="http://www.w3.org/1999/02/22-rdf-syntax-ns#">
      <rdf:Description rdf:about=""/>
   </rdf:RDF>
</x:xmpmeta>
                                                                                                    
                                                                                                    
                                                                                                    
                                                                                                    
                                                                                                    
                                                                                                    
                                                                                                    
                                                                                                    
                                                                                                    
                                                                                                    
                                                                                                    
                                                                                                    
                                                                                                    
                                                                                                    
                                                                                                    
                                                                                                    
                                                                                                    
                                                                                                    
                                                                                                    
                                                                                                    
                           
<?xpacket end="w"?></metadata>
<defs>
    <style>
      .cls-1 {
        fill: #fff;
        fill-rule: evenodd;
      }
    </style>
  </defs>
  <path class="cls-1" d="M19.58,156.9H7.992a8.005,8.005,0,0,0,0,16.01H19.58A8.005,8.005,0,0,0,19.58,156.9ZM408.8,159.3L252.955,3.2a7.717,7.717,0,0,0-11.189,0,7.746,7.746,0,0,0,0,11.207L384.028,156.9H55.546a8.005,8.005,0,0,0,0,16.01H384.028L241.766,315.391a7.747,7.747,0,0,0,0,11.207,7.718,7.718,0,0,0,11.189,0L408.8,170.5A7.745,7.745,0,0,0,408.8,159.3Z"/>
</svg>
