<svg xmlns="http://www.w3.org/2000/svg" width="119.962" height="119.962" viewBox="0 0 512 512">
  <metadata><?xpacket begin="﻿" id="W5M0MpCehiHzreSzNTczkc9d"?>
<x:xmpmeta xmlns:x="adobe:ns:meta/" x:xmptk="Adobe XMP Core 5.6-c138 79.159824, 2016/09/14-01:09:01        ">
   <rdf:RDF xmlns:rdf="http://www.w3.org/1999/02/22-rdf-syntax-ns#">
      <rdf:Description rdf:about=""/>
   </rdf:RDF>
</x:xmpmeta>
                                                                                                    
                                                                                                    
                                                                                                    
                                                                                                    
                                                                                                    
                                                                                                    
                                                                                                    
                                                                                                    
                                                                                                    
                                                                                                    
                                                                                                    
                                                                                                    
                                                                                                    
                                                                                                    
                                                                                                    
                                                                                                    
                                                                                                    
                                                                                                    
                                                                                                    
                                                                                                    
                           
<?xpacket end="w"?></metadata>
<defs>
    <style>
      .cls-1 {
        fill-rule: evenodd;
      }
    </style>
  </defs>
  <path class="cls-1" d="M291.054,243.039a8.549,8.549,0,0,0,11.486,3.726c0.5-.256,50.731-25.749,75.5-33.567a8.532,8.532,0,0,0-5.154-16.267c-26.1,8.245-75.981,33.567-78.1,34.641A8.527,8.527,0,0,0,291.054,243.039Zm7.62-97.655a8.528,8.528,0,0,0,3.866-.929c0.5-.256,50.731-25.749,75.5-33.567a8.532,8.532,0,0,0-5.154-16.267c-26.1,8.245-75.981,33.567-78.1,34.641A8.522,8.522,0,0,0,298.674,145.384Zm204.792-17.052a8.526,8.526,0,0,0-8.533,8.525V469.369a25.62,25.62,0,0,1-25.6,25.578h-204.8V475.329c12.442-4.348,44.851-14.485,76.8-14.485,74.334,0,124.809,16.447,125.312,16.616a8.532,8.532,0,0,0,11.221-8.092V94.228a8.515,8.515,0,0,0-6.682-8.322s-6.69-1.492-18.125-3.59a8.526,8.526,0,1,0-3.089,16.77c4.361,0.8,8.013,1.509,10.829,2.072V458.038c-19.337-5.065-62.276-14.247-119.467-14.247-37.18,0-73.7,12.2-85,16.336-10.044-4.433-40.4-16.336-77.132-16.336A575.489,575.489,0,0,0,51.2,458.4V100.826A562.183,562.183,0,0,1,179.2,85.7c31.113,0,57.8,9.677,68.267,14.051V435.266a8.531,8.531,0,0,0,12.927,7.307c0.845-.5,85.393-50.96,160.435-75.95a8.527,8.527,0,0,0,5.837-8.091V8.968A8.545,8.545,0,0,0,415.128.98c-68.275,25.586-137.36,68.54-138.052,68.966a8.528,8.528,0,1,0,9.045,14.46c0.631-.4,60.732-37.761,123.477-62.972V352.429c-58.249,20.223-119.066,53.245-145.067,68.028V94.228a8.533,8.533,0,0,0-4.719-7.63c-1.468-.724-36.436-17.948-80.613-17.948-77.107,0-136.388,16.669-138.88,17.384a8.521,8.521,0,0,0-6.187,8.194V469.37a8.528,8.528,0,0,0,8.534,8.527A8.409,8.409,0,0,0,45,477.564c0.589-.162,59.6-16.719,134.2-16.719,31.2,0,57.856,9.7,68.267,14.059v20.044H42.666a25.62,25.62,0,0,1-25.6-25.578V136.858a8.533,8.533,0,0,0-17.066,0V469.37A42.7,42.7,0,0,0,42.667,512H469.333A42.7,42.7,0,0,0,512,469.37V136.858A8.528,8.528,0,0,0,503.466,128.332ZM291.054,191.884a8.546,8.546,0,0,0,11.486,3.725c0.5-.255,50.731-25.748,75.5-33.567a8.532,8.532,0,0,0-5.154-16.266c-26.1,8.244-75.981,33.566-78.1,34.641A8.527,8.527,0,0,0,291.054,191.884Zm0,102.311a8.549,8.549,0,0,0,11.486,3.726c0.5-.256,50.731-25.749,75.5-33.567a8.532,8.532,0,0,0-5.154-16.267c-26.1,8.245-75.981,33.567-78.1,34.641A8.527,8.527,0,0,0,291.054,294.2ZM206.746,158.667c-52.693-12.354-112.572,3.385-115.089,4.059a8.525,8.525,0,0,0,2.2,16.761,8.719,8.719,0,0,0,2.219-.289c0.572-.162,58.223-15.313,106.778-3.931A8.525,8.525,0,1,0,206.746,158.667Zm0,51.156c-52.693-12.345-112.572,3.385-115.089,4.059a8.525,8.525,0,0,0,2.2,16.761,8.676,8.676,0,0,0,2.219-.29c0.572-.162,58.223-15.312,106.778-3.93A8.525,8.525,0,1,0,206.746,209.823Zm84.308,135.528a8.549,8.549,0,0,0,11.486,3.726c0.5-.256,50.731-25.749,75.5-33.567a8.532,8.532,0,0,0-5.154-16.267c-26.1,8.245-75.981,33.567-78.1,34.641A8.527,8.527,0,0,0,291.054,345.351Zm-84.308-84.372c-52.693-12.346-112.572,3.376-115.089,4.058a8.531,8.531,0,0,0,2.2,16.771,8.648,8.648,0,0,0,2.219-.3c0.572-.162,58.223-15.313,106.778-3.931A8.524,8.524,0,1,0,206.746,260.979Zm0,102.311c-52.693-12.354-112.572,3.385-115.089,4.059a8.53,8.53,0,0,0,2.2,16.77,8.648,8.648,0,0,0,2.219-.3c0.572-.161,58.223-15.312,106.778-3.93A8.525,8.525,0,1,0,206.746,363.29Zm0-51.155c-52.693-12.355-112.572,3.376-115.089,4.058a8.531,8.531,0,0,0,2.2,16.771,8.648,8.648,0,0,0,2.219-.3c0.572-.162,58.223-15.313,106.778-3.931A8.524,8.524,0,1,0,206.746,312.135Z"/>
</svg>
