<svg xmlns="http://www.w3.org/2000/svg" width="119.757" height="119.991" viewBox="0 0 512 513">
  <metadata><?xpacket begin="﻿" id="W5M0MpCehiHzreSzNTczkc9d"?>
<x:xmpmeta xmlns:x="adobe:ns:meta/" x:xmptk="Adobe XMP Core 5.6-c138 79.159824, 2016/09/14-01:09:01        ">
   <rdf:RDF xmlns:rdf="http://www.w3.org/1999/02/22-rdf-syntax-ns#">
      <rdf:Description rdf:about=""/>
   </rdf:RDF>
</x:xmpmeta>
                                                                                                    
                                                                                                    
                                                                                                    
                                                                                                    
                                                                                                    
                                                                                                    
                                                                                                    
                                                                                                    
                                                                                                    
                                                                                                    
                                                                                                    
                                                                                                    
                                                                                                    
                                                                                                    
                                                                                                    
                                                                                                    
                                                                                                    
                                                                                                    
                                                                                                    
                                                                                                    
                           
<?xpacket end="w"?></metadata>
<defs>
    <style>
      .cls-1 {
        fill-rule: evenodd;
      }
    </style>
  </defs>
  <path class="cls-1" d="M181.76,100.722a8.248,8.248,0,0,0,11.946,0,8.254,8.254,0,0,0,0-11.951c-7.68-8.535-7.68-23.047,0-30.729,14.507-14.511,14.507-40.118,0-54.629a8.248,8.248,0,0,0-11.947,0,8.253,8.253,0,0,0,0,11.95c7.68,8.535,7.68,23.047,0,30.729C167.253,60.6,167.253,86.211,181.76,100.722Zm-65.707,1.707a6.453,6.453,0,0,0,3.413.853c3.413,0,6.827-1.707,7.68-5.121,1.707-4.268-.853-9.39-5.12-11.1a4.693,4.693,0,0,1-2.56-4.268,7.764,7.764,0,0,1,3.413-6.829c8.533-3.414,13.653-11.95,13.653-21.339A21.053,21.053,0,0,0,122.879,35c-4.267-1.707-9.387.853-11.093,5.122s0.853,9.39,5.12,11.1a4.694,4.694,0,0,1,2.56,4.268c0,2.561-.853,5.121-3.413,5.975C107.52,64.872,102.4,73.407,102.4,82.8A21.052,21.052,0,0,0,116.053,102.429Zm145.067,0a6.453,6.453,0,0,0,3.413.853c3.413,0,6.827-1.707,7.68-5.121,1.707-4.268-.853-9.39-5.12-11.1a4.693,4.693,0,0,1-2.56-4.268,7.764,7.764,0,0,1,3.413-6.829C276.48,72.554,281.6,64.018,281.6,54.629A21.053,21.053,0,0,0,267.947,35c-4.267-1.707-9.387.853-11.093,5.122s0.853,9.39,5.12,11.1a4.694,4.694,0,0,1,2.56,4.268c0,2.561-.853,5.121-3.413,5.975-8.534,3.415-13.654,11.95-13.654,21.34A21.052,21.052,0,0,0,261.12,102.429ZM384,213.394a8.81,8.81,0,0,0-9.387,9.389c0.853,8.536.853,17.072,0.853,24.754A397.779,397.779,0,0,1,358.4,363.623a9.075,9.075,0,0,0,.853,6.829c1.707,2.561,3.413,3.414,5.973,4.268,5.12,0.854,9.387,1.708,14.507,1.708,44.373,0,81.067-36.7,81.067-81.943C460.8,250.951,427.52,215.1,384,213.394Zm-5.973,145.961a429.875,429.875,0,0,0,14.507-110.964V233.026c29.013,5.122,51.2,31.582,51.2,62.311A63.786,63.786,0,0,1,378.027,359.355ZM384,163.032c0-3.414-.853-6.828-0.853-10.242-0.853-10.243-1.707-21.34-3.413-26.461-0.853-3.414-4.267-5.975-8.533-5.975H21.333c-4.267,0-7.68,2.561-8.533,5.975C4.267,159.618,0,213.394,0,248.391c0,112.672,44.373,215.954,112.64,262.9A12.136,12.136,0,0,0,117.76,513H274.773a12.122,12.122,0,0,0,5.12-1.708c28.16-19.632,52.907-49.507,72.533-87.065a99.808,99.808,0,0,0,27.307,3.414c72.534,0,132.267-59.751,132.267-132.3C512,223.637,454.827,165.593,384,163.032Zm-85.333,46.094,25.6,25.607v81.943h-51.2V234.733Zm81.92,201.444c-9.387,0-19.627-1.708-29.867-4.269-4.267-1.707-8.533.854-10.24,4.269-17.92,36.7-41.813,66.578-68.267,85.357H121.173C58.027,450.688,17.067,354.234,17.067,248.391c0-32.437,3.413-79.383,11.093-110.965H290.133v56.336L258.56,225.344a7.75,7.75,0,0,0-2.56,5.975v93.893c0,5.122,3.413,8.536,8.533,8.536H332.8c5.12,0,8.533-3.414,8.533-8.536V231.319a7.748,7.748,0,0,0-2.56-5.975L307.2,193.761V137.425h56.32a128.228,128.228,0,0,0,1.707,17.072c0.853,7.682,1.707,14.511,2.56,18.778s5.12,6.829,9.387,6.829h2.56c63.147,0,115.2,52.068,115.2,115.233S442.88,410.57,380.587,410.57Z"/>
</svg>
