<svg xmlns="http://www.w3.org/2000/svg" width="100.081" height="119.999" viewBox="0 0 407 488">
  <metadata><?xpacket begin="﻿" id="W5M0MpCehiHzreSzNTczkc9d"?>
<x:xmpmeta xmlns:x="adobe:ns:meta/" x:xmptk="Adobe XMP Core 5.6-c138 79.159824, 2016/09/14-01:09:01        ">
   <rdf:RDF xmlns:rdf="http://www.w3.org/1999/02/22-rdf-syntax-ns#">
      <rdf:Description rdf:about=""/>
   </rdf:RDF>
</x:xmpmeta>
                                                                                                    
                                                                                                    
                                                                                                    
                                                                                                    
                                                                                                    
                                                                                                    
                                                                                                    
                                                                                                    
                                                                                                    
                                                                                                    
                                                                                                    
                                                                                                    
                                                                                                    
                                                                                                    
                                                                                                    
                                                                                                    
                                                                                                    
                                                                                                    
                                                                                                    
                                                                                                    
                           
<?xpacket end="w"?></metadata>
<defs>
    <style>
      .cls-1 {
        fill-rule: evenodd;
      }
    </style>
  </defs>
  <path class="cls-1" d="M366.71,41.591C365.311,10.9,344.216,0,326.52,0h-1.8c-17.7,0-38.79,10.9-40.29,41.592-0.3,2.9-2.8,32.093,12.4,49.19,7.1,7.8,16.5,11.9,28.093,12.1h1.4c11.6-.2,21-4.3,27.993-12.1C369.509,73.685,367.01,44.491,366.71,41.591ZM345.315,82.783c-4.8,5.4-11.1,8-19.5,8.1h-0.3c-8.4-.1-14.7-2.7-19.5-8.1-12.2-13.6-9.5-39.892-9.5-40.192v-0.4c1.3-28.094,22-30.294,28.293-30.294h1.7c6.3,0,26.993,2.2,28.293,30.294v0.4C355.613,49.89,355.413,71.385,345.315,82.783ZM399.4,150.969a77.63,77.63,0,0,0-10-8.8c-15.6-11.5-34.192-19.1-34.992-19.4a6.038,6.038,0,0,0-7.1,2l-21.5,29.594-21.5-29.594a5.9,5.9,0,0,0-7.1-2,182.424,182.424,0,0,0-32.292,17.4,0.378,0.378,0,0,0-.2.2,184.887,184.887,0,0,0-32.492-17.6,6.038,6.038,0,0,0-7.1,2l-21.8,29.694-21.5-29.594a5.905,5.905,0,0,0-7.1-2,184.887,184.887,0,0,0-32.492,17.6,0.378,0.378,0,0,1-.2-0.2,178.674,178.674,0,0,0-32.292-17.4,6.038,6.038,0,0,0-7.1,2L81.18,154.468,59.685,124.874a5.906,5.906,0,0,0-7.1-2c-0.8.3-19.5,7.9-34.991,19.4a77.651,77.651,0,0,0-10,8.8c-1.9,1.9-7.6,7.6-6.7,38.292,0.2,15.5,2.3,32.494,4.9,42.192,4.8,17.6,17.9,41.491,19.5,44.39a60.941,60.941,0,0,1,4.8,18.4L48.288,472.6a17.044,17.044,0,0,0,17,15.4H96.676a17.044,17.044,0,0,0,17-15.4l18.2-178.263a62.489,62.489,0,0,1,4.8-18.4c0.6-1,2.7-5,5.5-10.4,2.7,5.4,4.9,9.4,5.5,10.4a60.953,60.953,0,0,1,4.8,18.4L170.658,472.6a17.044,17.044,0,0,0,17,15.4h31.392a17.044,17.044,0,0,0,17-15.4l18.2-178.263a62.491,62.491,0,0,1,4.8-18.4c0.6-1.1,2.8-5,5.5-10.4,2.7,5.5,4.9,9.4,5.5,10.4a60.953,60.953,0,0,1,4.8,18.4L293.028,472.6a17.044,17.044,0,0,0,17,15.4h31.392a17.044,17.044,0,0,0,17-15.4l18.2-178.263a62.491,62.491,0,0,1,4.8-18.4c1.6-2.9,14.7-26.794,19.5-44.39,2.6-9.7,4.7-26.695,5.2-42.292C407,158.567,401.3,152.869,399.4,150.969ZM126.269,270.345c-0.1.2-.2,0.3-0.3,0.5a75.256,75.256,0,0,0-5.9,22.2L101.875,471.3a5.18,5.18,0,0,1-5.1,4.6H65.384a5.18,5.18,0,0,1-5.1-4.6L42.09,293.04a73.653,73.653,0,0,0-5.9-22.2c-0.1-.2-0.2-0.3-0.3-0.5s-13.9-25.1-18.5-41.992c-2.4-8.7-4.3-24.9-4.8-39.292-0.6-20.9,2.2-28.494,3.3-29.594a66.887,66.887,0,0,1,8.6-7.6c10.1-7.4,21.895-13.2,28.093-16.1l23.594,32.393a5.841,5.841,0,0,0,4.9,2.5,6.11,6.11,0,0,0,4.9-2.5l23.594-32.393a170.612,170.612,0,0,1,22.994,12.5l-2.7,2.7c-1.9,1.9-7.6,7.6-6.7,38.292,0.4,15.6,2.5,32.594,5.2,42.292a148.457,148.457,0,0,0,7.4,20C130.968,261.846,126.269,270.245,126.269,270.345Zm140.766-41.992c-4.6,16.9-18.4,41.692-18.5,41.992-0.1.2-.2,0.3-0.3,0.5a75.223,75.223,0,0,0-5.9,22.2L224.145,471.3a5.179,5.179,0,0,1-5.1,4.6H187.654a5.18,5.18,0,0,1-5.1-4.6L164.36,293.04a73.665,73.665,0,0,0-5.9-22.2c-0.1-.2-0.2-0.3-0.3-0.5s-13.9-25-18.5-41.992c-2.4-8.7-4.3-24.9-4.8-39.292-0.6-20.9,2.1-28.394,3.2-29.594a66.894,66.894,0,0,1,8.6-7.6c10.2-7.4,22.1-13.2,28.293-16.1l23.594,32.393a5.842,5.842,0,0,0,4.9,2.5,5.972,5.972,0,0,0,4.9-2.5l23.594-32.393c6.2,2.8,18.1,8.6,28.093,16.1a66.894,66.894,0,0,1,8.6,7.6c1.1,1.2,3.8,8.7,3.2,29.594C271.433,203.458,269.434,219.655,267.035,228.353ZM394.2,189.061c-0.4,14.4-2.4,30.594-4.8,39.292-4.6,16.9-18.4,41.692-18.5,41.992-0.1.2-.2,0.3-0.3,0.5a75.223,75.223,0,0,0-5.9,22.2L346.515,471.3a5.179,5.179,0,0,1-5.1,4.6H310.024a5.18,5.18,0,0,1-5.1-4.6L286.73,293.04a73.665,73.665,0,0,0-5.9-22.2c-0.1-.2-0.2-0.3-0.3-0.5,0-.1-4.7-8.5-9.5-18.8a153.775,153.775,0,0,0,7.4-20c2.6-9.7,4.7-26.695,5.2-42.292,0.9-30.694-4.8-36.392-6.7-38.292q-1.5-1.5-2.7-2.7a190.1,190.1,0,0,1,23.094-12.5l23.594,32.393a5.842,5.842,0,0,0,4.9,2.5,6.11,6.11,0,0,0,4.9-2.5l23.594-32.393c6.2,2.8,18,8.6,28.093,16.1a66.894,66.894,0,0,1,8.6,7.6C392.1,160.667,394.8,168.165,394.2,189.061ZM121.97,41.591C120.67,10.9,99.476,0,81.88,0h-1.8C62.485,0,41.39,10.9,39.89,41.491c-0.3,2.9-2.8,32.094,12.4,49.19,7,7.9,16.4,12,27.993,12.2h1.4c11.6-.2,21-4.3,27.893-12.1C124.769,73.685,122.27,44.491,121.97,41.591ZM100.675,82.783c-4.8,5.4-11.2,8-19.495,8.1h-0.3c-8.4-.1-14.7-2.7-19.5-8.1-12.2-13.6-9.6-39.892-9.5-40.192v-0.4C53.187,14.1,73.882,11.9,80.18,11.9h1.7c6.3,0,26.993,2.2,28.293,30.294v0.4C110.973,49.89,110.773,71.385,100.675,82.783ZM244.34,41.591C242.94,10.9,221.846,0,204.25,0h-1.8c-17.695,0-38.79,10.9-40.29,41.592-0.3,2.9-2.8,32.093,12.4,49.19,7.1,7.8,16.5,11.9,27.993,12.1h1.4c11.6-.2,21-4.3,27.993-12.1C247.139,73.685,244.64,44.491,244.34,41.591Zm-21.4,41.192c-4.8,5.4-11.1,8-19.5,8.1h-0.3c-8.4-.1-14.7-2.7-19.5-8.1-12.1-13.6-9.5-39.892-9.5-40.192v-0.4C175.457,14.1,196.152,11.9,202.45,11.9h1.7c6.3,0,26.993,2.2,28.293,30.294v0.4C233.243,49.89,233.043,71.385,222.945,82.783Z"/>
</svg>
