<svg xmlns="http://www.w3.org/2000/svg" width="27.997" height="27.331" viewBox="0 0 42 41">
  <metadata><?xpacket begin="﻿" id="W5M0MpCehiHzreSzNTczkc9d"?>
<x:xmpmeta xmlns:x="adobe:ns:meta/" x:xmptk="Adobe XMP Core 5.6-c138 79.159824, 2016/09/14-01:09:01        ">
   <rdf:RDF xmlns:rdf="http://www.w3.org/1999/02/22-rdf-syntax-ns#">
      <rdf:Description rdf:about=""/>
   </rdf:RDF>
</x:xmpmeta>
                                                                                                    
                                                                                                    
                                                                                                    
                                                                                                    
                                                                                                    
                                                                                                    
                                                                                                    
                                                                                                    
                                                                                                    
                                                                                                    
                                                                                                    
                                                                                                    
                                                                                                    
                                                                                                    
                                                                                                    
                                                                                                    
                                                                                                    
                                                                                                    
                                                                                                    
                                                                                                    
                           
<?xpacket end="w"?></metadata>
<defs>
    <style>
      .cls-1 {
        fill: #f3eebd;
        fill-rule: evenodd;
      }
    </style>
  </defs>
  <path class="cls-1" d="M8.309,27.254A43.638,43.638,0,0,0,22.832,38.587a22.667,22.667,0,0,0,8.127,2.4c0.2,0.009.384,0.017,0.58,0.017a6.742,6.742,0,0,0,5.219-2.234,0.182,0.182,0,0,0,.034-0.043,21.911,21.911,0,0,1,1.646-1.7c0.4-.382.81-0.782,1.2-1.189a4.092,4.092,0,0,0-.017-6.108L34.5,24.62a4.155,4.155,0,0,0-3-1.376,4.3,4.3,0,0,0-3.036,1.368l-3.053,3.041c-0.282-.161-0.571-0.306-0.844-0.442a10.541,10.541,0,0,1-.938-0.51,32.268,32.268,0,0,1-7.718-7,18.527,18.527,0,0,1-2.61-4.146c0.8-.722,1.552-1.478,2.277-2.217,0.256-.263.52-0.527,0.785-0.79A4.348,4.348,0,0,0,17.775,9.49a4.314,4.314,0,0,0-1.416-3.058L13.818,3.9c-0.3-.3-0.58-0.586-0.87-0.884-0.563-.578-1.151-1.172-1.731-1.708A4.259,4.259,0,0,0,8.215,0,4.385,4.385,0,0,0,5.179,1.317L1.989,4.494A6.518,6.518,0,0,0,.037,8.674a15.67,15.67,0,0,0,1.185,6.8A39.509,39.509,0,0,0,8.309,27.254ZM2.117,8.852A4.487,4.487,0,0,1,3.473,5.964L6.646,2.8a2.3,2.3,0,0,1,1.569-.722,2.183,2.183,0,0,1,1.535.739c0.571,0.527,1.109,1.079,1.689,1.665,0.29,0.3.588,0.595,0.887,0.9l2.541,2.532a2.3,2.3,0,0,1,.8,1.589,2.3,2.3,0,0,1-.8,1.589c-0.264.263-.529,0.535-0.793,0.8-0.793.8-1.535,1.555-2.354,2.277l-0.043.043a1.657,1.657,0,0,0-.426,1.886c0.008,0.025.017,0.042,0.026,0.068a19.978,19.978,0,0,0,2.993,4.851,34.058,34.058,0,0,0,8.221,7.459,12.215,12.215,0,0,0,1.126.612,10.6,10.6,0,0,1,.938.51c0.034,0.017.06,0.034,0.094,0.051a1.788,1.788,0,0,0,.827.212,1.811,1.811,0,0,0,1.271-.578l3.189-3.177a2.26,2.26,0,0,1,1.561-.756,2.145,2.145,0,0,1,1.51.756l5.142,5.114a2.044,2.044,0,0,1-.026,3.2c-0.358.382-.733,0.748-1.134,1.13A24.5,24.5,0,0,0,35.206,37.4a4.69,4.69,0,0,1-3.659,1.546c-0.145,0-.3-0.008-0.444-0.017a20.593,20.593,0,0,1-7.351-2.192A41.455,41.455,0,0,1,9.929,25.946,37.817,37.817,0,0,1,3.192,14.774,13.656,13.656,0,0,1,2.117,8.852Z"/>
</svg>
