<svg xmlns="http://www.w3.org/2000/svg" width="136.16" height="119.991" viewBox="0 0 800 705">
  <metadata><?xpacket begin="﻿" id="W5M0MpCehiHzreSzNTczkc9d"?>
<x:xmpmeta xmlns:x="adobe:ns:meta/" x:xmptk="Adobe XMP Core 5.6-c138 79.159824, 2016/09/14-01:09:01        ">
   <rdf:RDF xmlns:rdf="http://www.w3.org/1999/02/22-rdf-syntax-ns#">
      <rdf:Description rdf:about=""/>
   </rdf:RDF>
</x:xmpmeta>
                                                                                                    
                                                                                                    
                                                                                                    
                                                                                                    
                                                                                                    
                                                                                                    
                                                                                                    
                                                                                                    
                                                                                                    
                                                                                                    
                                                                                                    
                                                                                                    
                                                                                                    
                                                                                                    
                                                                                                    
                                                                                                    
                                                                                                    
                                                                                                    
                                                                                                    
                                                                                                    
                           
<?xpacket end="w"?></metadata>
<defs>
    <style>
      .cls-1 {
        fill-rule: evenodd;
      }
    </style>
  </defs>
  <path class="cls-1" d="M621.42,128.4a89.412,89.412,0,0,0,46.122-12.643L800,37.438V0.822L650.965,87.683a72.181,72.181,0,0,1-37.1,9.852l-197.291-2.3c-9.849-3.612-17.726-5.911-20.682-7.06-61.714-13.793-109.971-8.374-142.8.492A110.186,110.186,0,0,1,178.909,82.1L0,0V328.071l18.547,10.181a149.392,149.392,0,0,1,62.864,66.172l-10.505,8.538C42.675,433.488,36.6,473.224,55.15,501.3a66.011,66.011,0,0,0,41.69,25.286c1.97,0.164,4.925.328,7.058,0.328a80.435,80.435,0,0,0,17.07-1.149c0.329,14.121,3.612,26.272,11.982,37.766,11.162,15.6,28.888,22.66,47.928,23.645,4.924,0.328,10.013.492,13.952,0.821a59.443,59.443,0,0,0,11.817,42.692,66.019,66.019,0,0,0,41.691,25.287c1.97,0.164,4.924.328,7.058,0.328A63,63,0,0,0,296.1,644.483l6.237-4.761c1.477,9.03,4.1,17.241,9.684,24.63,8.371,11.494,21.009,19.211,35.946,22,1.969,0.164,3.939.164,6.073,0.328A54.894,54.894,0,0,0,388.675,676.5h0.984l7.387,10.345c12.967,18.719,39.885,23.153,58.6,10.181,15.592-11.166,21.83-33,14.771-50.409l1.313,1.969c12.311,18.227,35.618,26.108,55.971,17.735,22.487-9.2,31.514-33.5,25.606-54.35,15.1,16.911,41.033,20.2,59.745,7.224l0.984-.986c18.712-12.971,24.129-37.765,14.116-57.469,16.249,14.942,42.183,17.241,60.895,4.269,21.83-15.927,27.575-46.633,11.653-68.636l-23.306-33.332,50.717-59.112a182.224,182.224,0,0,1,46.944-39.079L800,350.4v-39.08l-34.469,19.54a195.867,195.867,0,0,0-52.195,42.856l-54.493,63.216c-16.249-14.942-42.183-17.241-60.895-4.269-21.83,15.927-27.575,46.632-11.653,68.636l0.82,2.135h-0.984a46.687,46.687,0,0,0-53.017-.822l-0.984.986a45.1,45.1,0,0,0-18.384,45.154l-5.252,3.777c-14.608-7.717-32.663-7.717-47.271,2.463-13.459,9.36-20.353,25.943-19.2,41.05l-14.444,9.2a41.233,41.233,0,0,0-32.335,6.239c-11.489,8.375-18.22,22.167-17.89,35.139l-7.223,4.6c-4.268,3.776-11.325,5.418-17.234,4.1a26.194,26.194,0,0,1-15.593-9.851c-3.775-4.269-5.416-11.33-4.1-17.241a26.208,26.208,0,0,1,9.849-15.6l78.293-58.947a14.164,14.164,0,0,0,6.565-11.659c0.492-9.031-7.221-16.748-16.085-16.748a17.939,17.939,0,0,0-9.192,2.463L277.554,618.375c-7.222,4.6-15.429,7.226-24.292,5.748s-16.742-5.912-21.337-13.136c-10.341-13.628-7.222-34.482,7.385-44.663l149.037-106.4a16.283,16.283,0,0,0,5.58-12.479A16.093,16.093,0,0,0,378.5,431.352a14.616,14.616,0,0,0-12.146,5.419L220.435,542.351c-4.1,1.806-6.237,4.763-9.356,7.554-17.562,11.165-43.5,8.7-52.852-3.777a33.238,33.238,0,0,1,4.268-42.856l14.608-10.18L339.269,382.421a14.158,14.158,0,0,0,6.566-11.658,15.561,15.561,0,0,0-6.73-13.629c-5.745-4.1-11.489-4.269-17.562-.656L147.887,474.537c-1.149,1.97-3.119,2.792-4.268,3.777l-16.742,12.151c-13.623,10.344-34.468,7.224-44.645-7.39-10.341-13.628-7.222-34.482,7.386-44.661L417.07,197.2c26.262,15.435,45.63,46.469,45.63,46.469,32.171,100.818,72.22,101.639,96.512,89.488,12.639-6.239,18.384-21.181,13.952-34.646-12.8-38.915-20.189-114.282-20.189-114.282-9.028-19.54-37.915-40.065-70.086-56.814L588.1,129.061Z"/>
</svg>
