<svg xmlns="http://www.w3.org/2000/svg" width="120.564" height="119.973" viewBox="0 0 612 609">
  <metadata><?xpacket begin="﻿" id="W5M0MpCehiHzreSzNTczkc9d"?>
<x:xmpmeta xmlns:x="adobe:ns:meta/" x:xmptk="Adobe XMP Core 5.6-c138 79.159824, 2016/09/14-01:09:01        ">
   <rdf:RDF xmlns:rdf="http://www.w3.org/1999/02/22-rdf-syntax-ns#">
      <rdf:Description rdf:about=""/>
   </rdf:RDF>
</x:xmpmeta>
                                                                                                    
                                                                                                    
                                                                                                    
                                                                                                    
                                                                                                    
                                                                                                    
                                                                                                    
                                                                                                    
                                                                                                    
                                                                                                    
                                                                                                    
                                                                                                    
                                                                                                    
                                                                                                    
                                                                                                    
                                                                                                    
                                                                                                    
                                                                                                    
                                                                                                    
                                                                                                    
                           
<?xpacket end="w"?></metadata>
<defs>
    <style>
      .cls-1 {
        fill-rule: evenodd;
      }
    </style>
  </defs>
  <path id="Forma_1" data-name="Forma 1" class="cls-1" d="M306,145.637a72.819,72.819,0,1,0-72.834-72.819A72.91,72.91,0,0,0,306,145.637Zm15.314,23.554a8.624,8.624,0,0,0-6.381-2.652H297.067a8.624,8.624,0,0,0-6.381,2.652,8.286,8.286,0,0,0-1.093,9.761l9.549,14.394-4.471,37.7,8.8,23.414a2.687,2.687,0,0,0,5.048,0l8.8-23.414-4.471-37.7,9.548-14.394A8.274,8.274,0,0,0,321.314,169.191ZM193.839,337.4H418.157a10.387,10.387,0,0,0,10.375-10.373V233.591c0-27.223-17.651-51.4-43.924-60.15l-20.482-6.286a7.363,7.363,0,0,0-9.088,4.52L306,306.2,256.962,171.673a7.35,7.35,0,0,0-9.079-4.52l-20.326,6.234c-26.44,8.809-44.091,32.981-44.091,60.2v93.435A10.386,10.386,0,0,0,193.839,337.4ZM72.832,182.856A72.818,72.818,0,1,0,0,110.039,72.908,72.908,0,0,0,72.832,182.856ZM196.81,383.031H138.8V268.476a65.96,65.96,0,0,0-65.966-65.954h0A65.96,65.96,0,0,0,6.868,268.474V424.088A63.327,63.327,0,0,0,70.2,487.409H145.47V591.1a17.9,17.9,0,0,0,17.9,17.9h69.494a17.9,17.9,0,0,0,17.9-17.9V436.975A53.949,53.949,0,0,0,196.81,383.031ZM539.168,182.856a72.818,72.818,0,1,0-72.834-72.817A72.906,72.906,0,0,0,539.168,182.856Zm0,19.666h0A65.958,65.958,0,0,0,473.2,268.474V383.029H415.191a53.949,53.949,0,0,0-53.954,53.944V591.1a17.9,17.9,0,0,0,17.9,17.9h69.494a17.9,17.9,0,0,0,17.9-17.9V487.407H541.8a63.328,63.328,0,0,0,63.335-63.321V268.472A65.96,65.96,0,0,0,539.166,202.522Z"/>
</svg>
