<svg xmlns="http://www.w3.org/2000/svg" width="129.68" height="119.954" viewBox="0 0 800 740">
  <metadata><?xpacket begin="﻿" id="W5M0MpCehiHzreSzNTczkc9d"?>
<x:xmpmeta xmlns:x="adobe:ns:meta/" x:xmptk="Adobe XMP Core 5.6-c138 79.159824, 2016/09/14-01:09:01        ">
   <rdf:RDF xmlns:rdf="http://www.w3.org/1999/02/22-rdf-syntax-ns#">
      <rdf:Description rdf:about=""/>
   </rdf:RDF>
</x:xmpmeta>
                                                                                                    
                                                                                                    
                                                                                                    
                                                                                                    
                                                                                                    
                                                                                                    
                                                                                                    
                                                                                                    
                                                                                                    
                                                                                                    
                                                                                                    
                                                                                                    
                                                                                                    
                                                                                                    
                                                                                                    
                                                                                                    
                                                                                                    
                                                                                                    
                                                                                                    
                                                                                                    
                           
<?xpacket end="w"?></metadata>
<defs>
    <style>
      .cls-1 {
        fill-rule: evenodd;
      }
    </style>
  </defs>
  <path class="cls-1" d="M570.275,695.542h3.788c-39.522-4.94-60.6-20.749-71.8-36.721H297.735c-11.2,15.972-32.276,31.781-71.8,36.721h2.471a22.229,22.229,0,1,0,0,44.458H570.275A22.229,22.229,0,1,0,570.275,695.542ZM800,476.867V58.126A58.12,58.12,0,0,0,741.869,0H58.131A58.12,58.12,0,0,0,0,58.126v514.74H0A51.209,51.209,0,0,0,51.214,622.1H748.621a51.319,51.319,0,0,0,51.214-49.235h0l0.165-96h0ZM446.438,566.28a12.86,12.86,0,0,1-12.844,12.844H366.241A12.861,12.861,0,0,1,353.4,566.28v-8.892a12.862,12.862,0,0,1,12.845-12.844h67.353a12.861,12.861,0,0,1,12.844,12.844v8.892Zm295.431-68.995H58.131a10.261,10.261,0,0,1-10.21-10.209V58.126a10.261,10.261,0,0,1,10.21-10.209H741.7a10.26,10.26,0,0,1,10.21,10.209v428.95h0A10.12,10.12,0,0,1,741.869,497.285ZM566.817,255.394h25.69l0.824-.823a166.435,166.435,0,0,0-1.812-23.876ZM507.863,109.5L426.349,191.01V216.7l97.159-97.152A147.458,147.458,0,0,0,507.863,109.5ZM471.635,94.517L426.349,139.8v25.687l64.223-64.218A129.527,129.527,0,0,0,471.635,94.517Zm-21.079-4.446a164.743,164.743,0,0,0-23.878-1.811l-0.329.33v25.688Zm39.522,165.323,81.845-81.838a147.356,147.356,0,0,0-10.046-15.643l-97.488,97.481h25.689Zm60.437-111.807c-1.977-2.14-3.953-4.281-6.093-6.422s-4.446-4.281-6.752-6.422L426.349,242.221v13.008h12.514Zm-9.222,111.807,45.78-45.776a197.9,197.9,0,0,0-6.588-18.937l-64.717,64.713h25.525ZM397.2,117.076c-92.548,0-167.64,75.087-167.64,167.628S304.652,452.333,397.2,452.333,564.842,377.246,564.842,284.7H397.2V117.076Z"/>
</svg>
