<svg xmlns="http://www.w3.org/2000/svg" width="157.36" height="119.987" viewBox="0 0 800 610">
  <metadata><?xpacket begin="﻿" id="W5M0MpCehiHzreSzNTczkc9d"?>
<x:xmpmeta xmlns:x="adobe:ns:meta/" x:xmptk="Adobe XMP Core 5.6-c138 79.159824, 2016/09/14-01:09:01        ">
   <rdf:RDF xmlns:rdf="http://www.w3.org/1999/02/22-rdf-syntax-ns#">
      <rdf:Description rdf:about=""/>
   </rdf:RDF>
</x:xmpmeta>
                                                                                                    
                                                                                                    
                                                                                                    
                                                                                                    
                                                                                                    
                                                                                                    
                                                                                                    
                                                                                                    
                                                                                                    
                                                                                                    
                                                                                                    
                                                                                                    
                                                                                                    
                                                                                                    
                                                                                                    
                                                                                                    
                                                                                                    
                                                                                                    
                                                                                                    
                                                                                                    
                           
<?xpacket end="w"?></metadata>
<defs>
    <style>
      .cls-1 {
        fill-rule: evenodd;
      }
    </style>
  </defs>
  <path class="cls-1" d="M754.22,181.751a14.354,14.354,0,0,0,20.517,0l20.518-20.541a14.4,14.4,0,0,0,0-20.541L748.8,94.163a14.354,14.354,0,0,0-20.517,0L707.769,114.7a14.4,14.4,0,0,0,0,20.541l1.969,1.972-14.444,14.461A253.864,253.864,0,0,0,566.28,97.942V71.649H582.2a14.474,14.474,0,0,0,14.445-14.461V14.462A14.474,14.474,0,0,0,582.2,0H489.956a14.473,14.473,0,0,0-14.444,14.461V57.188a14.473,14.473,0,0,0,14.444,14.461h15.921V97.942a256.132,256.132,0,0,0-129.014,53.736l-14.444-14.461,1.97-1.972a14.4,14.4,0,0,0,0-20.541L343.871,94.163a14.354,14.354,0,0,0-20.517,0L276.9,140.669a14.4,14.4,0,0,0,0,20.541l20.518,20.541a14.354,14.354,0,0,0,20.517,0l1.97-1.972,14.444,14.462a255.63,255.63,0,0,0-54.986,158.744C279.365,494.639,394.591,610,536.079,610s256.714-115.36,256.714-257.014A256.621,256.621,0,0,0,737.806,194.24l14.444-14.461ZM536.078,550.512c-108.659,0-197.131-88.575-197.131-197.363s88.472-197.362,197.131-197.362S733.21,244.361,733.21,353.149,644.739,550.512,536.078,550.512ZM104.228,422.006a25.472,25.472,0,0,0,0,50.943H242.269a23.751,23.751,0,0,0,7.715-1.315,297.936,297.936,0,0,1-15.758-49.792h-130v0.164ZM249.82,235a27.961,27.961,0,0,0-7.551-1.315H25.441a25.472,25.472,0,0,0,0,50.943H234.062A300.256,300.256,0,0,1,249.82,235ZM226.511,353.149c0-8.545.493-16.926,1.15-25.307H60.895a25.472,25.472,0,0,0,0,50.943H227.5C227,370.4,226.511,361.861,226.511,353.149ZM660,279.7a15.64,15.64,0,0,0-20.517-6.08l-88.8,43.548A39.1,39.1,0,0,0,502.1,373.2a38.995,38.995,0,0,0,72.385-15.447l80.921-57.024A15.661,15.661,0,0,0,660,279.7ZM552.493,357.422a17.12,17.12,0,1,1-12.311-20.87A17.243,17.243,0,0,1,552.493,357.422Zm39.065-102.214a16.037,16.037,0,1,0-6.073-21.856,16.107,16.107,0,0,0,.164,16.1A19.784,19.784,0,0,0,591.558,255.208Zm-56.465-14.791a16.022,16.022,0,1,0-16.085-15.94,16.352,16.352,0,0,0,2.134,8.053A15.776,15.776,0,0,0,535.093,240.417Zm2.135,225.794h0a16.23,16.23,0,0,0-15.922,16.269,15.827,15.827,0,0,0,16.086,15.776,15.984,15.984,0,0,0,15.757-16.269C553.313,473.44,546.091,466.211,537.228,466.211ZM593.363,450.6a15.875,15.875,0,0,0-5.581,21.855h0a16.008,16.008,0,0,0,27.576-16.268A16.207,16.207,0,0,0,593.363,450.6Zm62.7-47.657A16.05,16.05,0,0,0,634.4,425.128a15.293,15.293,0,0,0,5.908,5.751,15.911,15.911,0,0,0,21.83-6.08A16.093,16.093,0,0,0,656.065,402.943ZM423.15,354.63a16,16,0,1,0-32.007.329A16,16,0,0,0,423.15,354.63Zm-6.072,50.612A15.876,15.876,0,0,0,411.5,427.1h0a15.991,15.991,0,0,0,21.994,5.587A15.989,15.989,0,1,0,417.078,405.242Zm231.765-52.915a15.318,15.318,0,0,0,2.3,8.053A15.919,15.919,0,1,0,648.843,352.327ZM415.929,304.179a15.913,15.913,0,0,0,21.83-6.081h0a16.1,16.1,0,0,0-28.068-15.776,16.535,16.535,0,0,0,.164,16.105A17.07,17.07,0,0,0,415.929,304.179Zm62.537-47.821a0.161,0.161,0,0,0,.164-0.165c0.164,0,.164,0,0.164-0.164h0.164a16.059,16.059,0,0,0-16.414-27.607,0.161,0.161,0,0,0-.164.164c-0.164,0-.164.164-0.328,0.164a15.875,15.875,0,0,0-5.581,21.856h0A16.112,16.112,0,0,0,478.466,256.358Zm2.134,195.39a15.914,15.914,0,0,0-21.831,6.081,16.109,16.109,0,0,0,.164,16.1,16.969,16.969,0,0,0,5.91,5.916A16.109,16.109,0,0,0,480.6,451.748Z"/>
</svg>
