<svg xmlns="http://www.w3.org/2000/svg" width="84.9" height="120" viewBox="0 0 566 800">
  <metadata><?xpacket begin="﻿" id="W5M0MpCehiHzreSzNTczkc9d"?>
<x:xmpmeta xmlns:x="adobe:ns:meta/" x:xmptk="Adobe XMP Core 5.6-c138 79.159824, 2016/09/14-01:09:01        ">
   <rdf:RDF xmlns:rdf="http://www.w3.org/1999/02/22-rdf-syntax-ns#">
      <rdf:Description rdf:about=""/>
   </rdf:RDF>
</x:xmpmeta>
                                                                                                    
                                                                                                    
                                                                                                    
                                                                                                    
                                                                                                    
                                                                                                    
                                                                                                    
                                                                                                    
                                                                                                    
                                                                                                    
                                                                                                    
                                                                                                    
                                                                                                    
                                                                                                    
                                                                                                    
                                                                                                    
                                                                                                    
                                                                                                    
                                                                                                    
                                                                                                    
                           
<?xpacket end="w"?></metadata>
<defs>
    <style>
      .cls-1 {
        fill-rule: evenodd;
      }
    </style>
  </defs>
  <path class="cls-1" d="M287.572,551a24.87,24.87,0,1,0,35.17,0A24.683,24.683,0,0,0,287.572,551ZM164.4,449.734a24.87,24.87,0,1,0,0,35.174A24.978,24.978,0,0,0,164.4,449.734ZM561.077,50.716C553.388,32.065,529.834.654,458.185,0H455.9c-44,0-96.347,11.616-147.875,32.883-9.487,3.926-18.648,8.017-27.481,12.434l-0.491-.491a75.943,75.943,0,0,0-105.836,0L29.935,185.031A98.249,98.249,0,0,0,0,255.706V730.634A69.4,69.4,0,0,0,69.357,800H385.066a69.4,69.4,0,0,0,69.357-69.366V255.706a96.269,96.269,0,0,0-8.179-39.1c30.589-17.178,57.253-36.81,77.7-57.423C574,108.3,568.765,69.366,561.077,50.716ZM86.7,467.4a60.034,60.034,0,1,1,60.034,60.04A60.182,60.182,0,0,1,86.7,467.4Zm51.037,157.055a14.739,14.739,0,0,1-1.963-20.613l157.69-189.939a14.641,14.641,0,1,1,22.574,18.651L158.345,622.5A14.736,14.736,0,0,1,137.734,624.458Zm167.5,4.254a60.041,60.041,0,1,1,60.034-60.041A60.183,60.183,0,0,1,305.239,628.712Zm66.577-441.064c-30.1,12.434-61.015,21.268-89.151,25.522,0,1.308.163,2.453,0.163,3.763a57.416,57.416,0,1,1-11.286-34.193,404.326,404.326,0,0,0,83.752-24.54c9.979-4.09,19.3-8.343,28.136-12.761L325.522,89c1.637-.654,3.273-1.309,4.908-2.127,44-18.159,89.642-28.466,125.629-28.466H457.7c34.515,0.327,47.438,9.652,49.4,14.56C513.148,88.017,474.708,145.276,371.816,187.648Z"/>
</svg>
