<svg xmlns="http://www.w3.org/2000/svg" width="64.241" height="119.958" viewBox="0 0 309 577">
  <metadata><?xpacket begin="﻿" id="W5M0MpCehiHzreSzNTczkc9d"?>
<x:xmpmeta xmlns:x="adobe:ns:meta/" x:xmptk="Adobe XMP Core 5.6-c138 79.159824, 2016/09/14-01:09:01        ">
   <rdf:RDF xmlns:rdf="http://www.w3.org/1999/02/22-rdf-syntax-ns#">
      <rdf:Description rdf:about=""/>
   </rdf:RDF>
</x:xmpmeta>
                                                                                                    
                                                                                                    
                                                                                                    
                                                                                                    
                                                                                                    
                                                                                                    
                                                                                                    
                                                                                                    
                                                                                                    
                                                                                                    
                                                                                                    
                                                                                                    
                                                                                                    
                                                                                                    
                                                                                                    
                                                                                                    
                                                                                                    
                                                                                                    
                                                                                                    
                                                                                                    
                           
<?xpacket end="w"?></metadata>
<defs>
    <style>
      .cls-1 {
        fill-rule: evenodd;
      }
    </style>
  </defs>
  <path id="Forma_1" data-name="Forma 1" class="cls-1" d="M23.7,103.329l53.53-.958L79.7,130.29h83.206l34.178-83.758h73.764V0H118.338a41.1,41.1,0,0,0-28,11.251S37.091,63.722,21.82,77.439C-4,100.621,23.7,103.329,23.7,103.329ZM280.142,41.3l27.884-7.566V15.709L280.142,5.817V41.3ZM66.361,139.6H177.9v37.226H66.361V139.6ZM224.373,412.973c0-84.921-45.824-105.088-50.769-109.741s-8.179-8.972-8.179-18.278S177.9,268.723,177.9,259.026c0-17.058-11.962-19.767-11.962-27.91,0-13.969,10.429-13.532,10.429-25.164,0-15.942-10.4-19.823-10.4-19.823s-77.175-.577-94.51,0C0.135,301.3,1.3,418.79,1.3,418.79V546.753C1.3,574.673,14.821,577,14.821,577H212.93c13.869,0,11.443-18.613,11.443-18.613V412.973ZM303.407,158.21c-42.264-43.573-42.924-102.371-42.924-102.371H209.631c10.568,62.046,49.458,95.447,75.567,111.1,13.579,8.143,18.134,6.961,20.3,4.179C311,164.026,303.407,158.21,303.407,158.21Z"/>
</svg>
